<?xml version="1.0" encoding="UTF-8" standalone="no"?>
<svg width="55mm" height="40mm" viewBox="0 0 55 40" version="1.1" id="svg5" xmlns="http://www.w3.org/2000/svg" xmlns:svg="http://www.w3.org/2000/svg">
<g id="checkers">
<rect width="5" height="5" x="0" y="0"></rect>
<rect width="5" height="5" x="10" y="0"></rect>
<rect width="5" height="5" x="20" y="0"></rect>
<rect width="5" height="5" x="30" y="0"></rect>
<rect width="5" height="5" x="40" y="0"></rect>
<rect width="5" height="5" x="50" y="0"></rect>
<rect width="5" height="5" x="5" y="5"></rect>
<rect width="5" height="5" x="15" y="5"></rect>
<rect width="5" height="5" x="25" y="5"></rect>
<rect width="5" height="5" x="35" y="5"></rect>
<rect width="5" height="5" x="45" y="5"></rect>
<rect width="5" height="5" x="0" y="10"></rect>
<rect width="5" height="5" x="10" y="10"></rect>
<rect width="5" height="5" x="20" y="10"></rect>
<rect width="5" height="5" x="30" y="10"></rect>
<rect width="5" height="5" x="40" y="10"></rect>
<rect width="5" height="5" x="50" y="10"></rect>
<rect width="5" height="5" x="5" y="15"></rect>
<rect width="5" height="5" x="15" y="15"></rect>
<rect width="5" height="5" x="25" y="15"></rect>
<rect width="5" height="5" x="35" y="15"></rect>
<rect width="5" height="5" x="45" y="15"></rect>
<rect width="5" height="5" x="0" y="20"></rect>
<rect width="5" height="5" x="10" y="20"></rect>
<rect width="5" height="5" x="20" y="20"></rect>
<rect width="5" height="5" x="30" y="20"></rect>
<rect width="5" height="5" x="40" y="20"></rect>
<rect width="5" height="5" x="50" y="20"></rect>
<rect width="5" height="5" x="5" y="25"></rect>
<rect width="5" height="5" x="15" y="25"></rect>
<rect width="5" height="5" x="25" y="25"></rect>
<rect width="5" height="5" x="35" y="25"></rect>
<rect width="5" height="5" x="45" y="25"></rect>
<rect width="5" height="5" x="0" y="30"></rect>
<rect width="5" height="5" x="10" y="30"></rect>
<rect width="5" height="5" x="20" y="30"></rect>
<rect width="5" height="5" x="30" y="30"></rect>
<rect width="5" height="5" x="40" y="30"></rect>
<rect width="5" height="5" x="50" y="30"></rect>
<rect width="5" height="5" x="5" y="35"></rect>
<rect width="5" height="5" x="15" y="35"></rect>
<rect width="5" height="5" x="25" y="35"></rect>
<rect width="5" height="5" x="35" y="35"></rect>
<rect width="5" height="5" x="45" y="35"></rect>

</g>
</svg>
